<svg width="850" height="851" viewBox="0 0 850 851" fill="none" xmlns="http://www.w3.org/2000/svg">
<rect y="426.264" width="600" height="600" rx="60" transform="rotate(-45 0 426.264)" fill="#893858"/>
<path d="M125.426 528.377C101.995 504.945 101.995 466.955 125.426 443.524L246.524 322.426C269.955 298.995 307.945 298.995 331.377 322.426L588.358 579.408C611.79 602.84 611.79 640.83 588.358 664.261L467.261 785.358C443.83 808.79 405.84 808.79 382.408 785.358L125.426 528.377Z" fill="#37081A"/>
<path d="M299 125.523L382.096 42.4265C405.528 18.995 443.518 18.995 466.949 42.4265L835.553 411.031C843.364 418.841 843.364 431.504 835.553 439.315L724.173 550.696L299 125.523Z" fill="#4F1029"/>
<rect x="212.264" y="499.396" width="300" height="300" rx="34" transform="rotate(-45 212.264 499.396)" fill="#D7B3C0"/>
<rect x="424.834" y="688.778" width="119.974" height="268.622" rx="59.987" transform="rotate(-135 424.834 688.778)" fill="#A8788A"/>
<rect x="157.264" y="317.55" width="378" height="378" rx="60" transform="rotate(-45 157.264 317.55)" fill="#E6D3DA"/>
<path d="M247.507 373.149C240.705 366.097 245.39 268.452 248.282 262.715C251.174 256.978 263.824 255.902 276.602 262.715C287.607 268.583 318.209 312.694 326.484 324.815C327.386 326.136 326.418 327.888 324.818 327.888H317.024C316.092 327.888 315.291 327.271 315.094 326.36C312.876 316.108 301.093 257.919 320.687 263.976C342.164 270.616 342.164 264.747 353.568 267.137C364.973 269.528 360.087 362.158 351.858 369.807C343.628 377.457 332.037 377.457 320.687 369.807C310.933 363.233 279.565 319.827 270.935 307.748C269.992 306.429 270.958 304.634 272.579 304.634H280.145C281.131 304.634 281.966 305.336 282.109 306.311C283.582 316.314 290.704 367.863 281.857 373.149C272.054 379.006 254.308 380.201 247.507 373.149Z" fill="#37081A"/>
<path d="M380.043 373.149C375.528 373.149 377.658 347.714 379.098 334.279C379.321 332.198 382.128 331.888 382.846 333.854L383.312 335.129C384.101 337.288 381.328 338.819 379.979 336.958C364.152 315.123 331.129 267.69 342.164 266.682C356.508 265.372 369.917 260.319 377.853 266.057C384.651 270.971 402.828 308.433 407.905 319.082C408.535 320.404 407.558 321.898 406.094 321.898H391.152C389.704 321.898 388.727 320.436 389.328 319.119C394.235 308.361 412.207 269.857 419.748 266.057C428.524 261.634 464.624 259.727 463.622 268.332C462.848 274.972 429.501 318.648 414.307 338.254C412.922 340.041 410.16 338.495 410.911 336.362L411.41 334.945C412.125 332.913 415.044 333.285 415.19 335.434C416.096 348.774 417.257 371.954 414.493 373.149C410.601 374.832 386.177 373.149 380.043 373.149Z" fill="#37081A"/>
<path d="M451.647 373.149C446.759 367.651 438.45 261.281 453.031 262.715C467.613 264.149 485.682 258.293 487.482 262.715C489.282 267.137 482.831 337.001 487.482 341.81C492.133 346.62 500.686 341.184 503.686 341.81C506.685 342.436 523.917 367.895 522.925 369.807C521.933 371.719 456.535 378.647 451.647 373.149Z" fill="#37081A"/>
<path d="M562.339 373.149C554.735 373.149 528.288 371.436 523.623 370.231C523.132 370.104 522.662 369.825 522.192 369.634C515.493 366.919 509.655 363.395 504.678 358.572C499.52 353.472 500.686 348.413 503.686 341.81C505.818 333.472 504.678 325.212 504.678 317.155C504.678 308.996 506.089 301.55 508.911 294.819C511.831 287.985 515.723 279.493 520.881 274.495C526.039 269.395 532.122 265.469 539.129 262.715C546.233 259.961 553.921 258.584 562.193 258.584C570.562 258.584 578.25 259.961 585.257 262.715C592.264 265.469 598.347 269.395 603.505 274.495C608.662 279.493 612.798 287.985 615.621 294.819C618.54 301.55 620 308.996 620 317.155C620 325.212 618.54 332.658 615.621 339.491C612.798 346.325 608.808 352.291 603.651 357.391C598.493 362.389 592.41 366.264 585.403 369.018C578.397 371.772 570.708 373.149 562.339 373.149ZM562.339 343.928C565.55 343.928 568.519 343.316 571.244 342.092C574.066 340.868 576.499 339.134 578.542 336.891C580.683 334.545 582.338 331.74 583.506 328.476C584.673 325.11 585.257 321.337 585.257 317.155C585.257 312.973 584.673 309.251 583.506 305.987C582.338 302.621 580.683 299.816 578.542 297.572C576.499 295.227 574.066 293.442 571.244 292.218C568.519 290.994 565.55 290.382 562.339 290.382C559.127 290.382 556.111 290.994 553.288 292.218C550.563 293.442 548.13 295.227 545.989 297.572C543.946 299.816 542.34 302.621 541.172 305.987C540.004 309.251 539.42 312.973 539.42 317.155C539.42 321.337 540.004 325.11 541.172 328.476C542.34 331.74 543.946 334.545 545.989 336.891C548.13 339.134 550.563 340.868 553.288 342.092C556.111 343.316 559.127 343.928 562.339 343.928Z" fill="#37081A"/>
</svg>
